# xmcd
#
# Track frame offsets:
#	150
#	11713
#	27963
#	39670
#	51853
#	65603
#	74495
#	86415
#	97745
#	108208
#	120900
#	128605
#	158090
#	186675
#	197193
#	212908
#	233805
#	260203
#
# Disc length: 3674 seconds
#
# Revision: 1
# Processed by: cddbd v1.5.1PL0 Copyright (c) Steve Scherf et al.
# Submitted via: audiograbber 1.83.01
#
DISCID=fe0e5812
DTITLE=Memphis Slim - Blues Masters Vol. 9
DYEAR=1900
DGENRE=Blues
TTITLE0=El Capitan
TTITLE1=This Is A Good Time To Write A Song
TTITLE2=I'm So Alone
TTITLE3=True Love
TTITLE4=Two Of A Kind
TTITLE5=Big City Girl
TTITLE6=The Question
TTITLE7=Misery
TTITLE8=Fattening Frogs Fo Snakes
TTITLE9=Born With The Blues
TTITLE10=Whizzle Wham
TTITLE11=3 And 1 Boogie
TTITLE12=Bertha May-2
TTITLE13=Celeste Boogie-2
TTITLE14=Three Women Blues
TTITLE15=Coffey Blues
TTITLE16=Lonesome Blues
TTITLE17=Frankie And Johnny
EXTD=
EXTT0=
EXTT1=
EXTT2=
EXTT3=
EXTT4=
EXTT5=
EXTT6=
EXTT7=
EXTT8=
EXTT9=
EXTT10=
EXTT11=
EXTT12=
EXTT13=
EXTT14=
EXTT15=
EXTT16=
EXTT17=
PLAYORDER=
